<svg xmlns="http://www.w3.org/2000/svg" viewBox="0 0 200 200" width="100%" height="100%">
  <path d="M 29.73 159.81 L 29.73 159.81 L 30.02 157.51 L 29.73 157.18 L 25.92 160.99 L 25.92 169.18 L 33.53 169.18 L 33.53 160.99 L 29.73 157.18 L 29.73 157.18 M 170.27 159.81 L 170.27 159.81 L 170.56 157.51 L 170.27 157.18 L 166.47 160.99 L 166.47 169.18 L 174.08 169.18 L 174.08 160.99 L 170.27 157.18 L 170.27 157.18 M 117.28 107.36 L 117.28 107.36 L 114.94 107.32 L 114.64 107.61 L 149.78 107.61 L 114.64 107.61 L 114.64 107.61 M 52.86 107.36 L 52.86 107.36 L 50.52 107.32 L 50.22 107.61 L 85.36 107.61 L 50.22 107.61 L 50.22 107.61 M 33.26 28.38 L 33.26 28.38 L 30.92 28.18 L 30.60 28.47 L 38.22 28.47 L 30.60 28.47 L 30.60 28.47 M 98.85 28.38 L 98.85 28.38 L 96.51 28.18 L 96.19 28.47 L 103.81 28.47 L 96.19 28.47 L 96.19 28.47 M 164.43 28.38 L 164.43 28.38 L 162.10 28.18 L 161.78 28.47 L 169.40 28.47 L 161.78 28.47 L 161.78 28.47 M 185.50 35.52 L 185.50 35.52 L 181.99 35.52 L 181.99 174.75 L 176.13 180.60 L 23.87 180.60 L 18.01 174.75 L 18.01 164.95 L 18.01 164.95 M 14.50 164.01 L 14.50 164.01 L 18.01 164.01 L 18.01 25.25 L 23.87 19.40 L 176.13 19.40 L 181.99 25.25 L 181.99 34.58 L 181.99 34.58" stroke="#60a5fa" stroke-width="3" fill="none" stroke-linecap="round" stroke-linejoin="round"/>
</svg>