<svg xmlns="http://www.w3.org/2000/svg" viewBox="0 0 200 200" width="100%" height="100%">
  <path d="M 93.74 146.94 L 93.74 146.94 L 93.77 146.27 L 93.68 146.19 L 93.68 150.17 L 93.68 146.19 L 93.68 146.19 M 117.00 146.94 L 117.00 146.94 L 117.02 146.27 L 116.94 146.19 L 116.94 150.17 L 116.94 146.19 L 116.94 146.19 M 105.31 148.18 L 105.31 148.18 L 105.39 147.61 L 105.31 147.51 L 105.31 148.84 L 105.31 147.51 L 105.31 147.51 M 105.31 38.53 L 105.31 38.53 L 105.39 37.96 L 105.31 37.86 L 105.31 39.19 L 105.31 37.86 L 105.31 37.86 M 87.78 131.63 L 87.13 131.71 L 87.04 131.63 L 87.04 48.83 L 90.36 45.51 L 120.26 45.51 L 123.59 48.83 L 123.59 54.94 L 123.59 54.94 M 122.84 55.13 L 123.50 55.13 L 123.59 55.21 L 123.59 137.88 L 120.26 141.20 L 90.36 141.20 L 87.04 137.88 L 87.04 131.90 L 87.04 131.90 M 93.74 37.29 L 93.74 37.29 L 93.77 36.62 L 93.68 36.54 L 93.68 40.52 L 93.68 36.54 L 93.68 36.54 M 117.00 37.29 L 117.00 37.29 L 117.02 36.62 L 116.94 36.54 L 116.94 40.52 L 116.94 36.54 L 116.94 36.54 M 140.73 31.55 L 140.73 31.55 L 140.07 31.58 L 139.99 31.66 L 140.19 176.59 L 136.59 179.91 L 136.59 185.33 L 136.43 185.50 L 67.43 185.50 L 67.27 185.33 L 67.27 179.91 L 65.61 178.25 L 60.18 178.25 L 60.02 178.08 L 60.02 168.53 L 60.02 168.53 M 59.27 168.35 L 59.27 168.35 L 59.93 168.35 L 60.02 168.27 L 60.02 21.92 L 60.18 21.75 L 65.61 21.75 L 67.27 20.09 L 67.27 14.67 L 67.43 14.50 L 135.99 14.50 L 136.15 14.67 L 136.15 20.09 L 139.64 23.57 L 139.98 31.40 L 139.98 31.40" stroke="#60a5fa" stroke-width="3" fill="none" stroke-linecap="round" stroke-linejoin="round"/>
</svg>