<svg xmlns="http://www.w3.org/2000/svg" viewBox="0 0 200 200" width="100%" height="100%">
  <path d="M 183.94 95.97 L 183.94 95.97 L 183.60 96.24 L 183.59 96.32 L 183.73 96.80 L 183.37 100.25 L 183.29 101.19 L 183.29 101.51 L 184.38 102.59 L 184.85 102.59 L 185.50 103.24 L 185.50 115.80 L 184.85 116.45 L 18.54 116.45 L 17.89 115.80 L 17.89 115.28 L 17.89 115.28 M 17.40 115.17 L 17.40 115.17 L 17.83 115.17 L 17.89 115.11 L 17.89 103.24 L 18.54 102.59 L 18.97 102.59 L 20.06 101.51 L 20.06 101.19 L 20.11 100.25 L 20.41 97.37 L 20.31 97.25 L 15.08 96.70 L 14.50 95.99 L 15.27 88.67 L 15.98 88.09 L 21.22 88.64 L 21.34 88.54 L 21.80 84.13 L 22.52 83.55 L 146.75 96.61 L 147.46 96.03 L 147.78 93.02 L 148.49 92.44 L 183.15 96.08 L 183.47 96.20 L 183.47 96.20" stroke="#60a5fa" stroke-width="3" fill="none" stroke-linecap="round" stroke-linejoin="round"/>
</svg>