<svg xmlns="http://www.w3.org/2000/svg" viewBox="0 0 200 200" width="100%" height="100%">
  <path d="M 185.50 133.01 L 185.50 120.20 M 174.77 72.74 L 174.77 73.17 L 174.82 73.22 L 185.39 73.22 L 185.50 73.33 L 185.50 132.90 L 185.39 133.01 L 181.76 133.01 L 181.66 133.12 L 181.66 137.35 L 181.55 137.46 L 67.52 137.46 L 67.42 137.35 L 67.42 133.12 L 67.31 133.01 L 61.76 133.01 L 61.65 132.90 L 61.65 116.03 L 61.55 115.93 L 38.16 115.93 L 38.16 115.93 L 38.16 115.93 M 38.04 116.41 L 38.04 115.98 L 37.99 115.93 L 14.61 115.93 L 14.50 115.82 L 14.50 71.19 L 14.61 71.09 L 22.36 71.09 L 22.47 70.98 L 22.47 66.75 L 22.58 66.64 L 57.27 66.64 L 57.38 66.75 L 57.38 70.98 L 57.49 71.09 L 65.82 71.09 L 65.92 70.98 L 65.92 62.65 L 66.03 62.54 L 164.04 62.54 L 164.15 62.65 L 164.15 73.11 L 164.25 73.22 L 174.65 73.22 L 174.65 73.22 L 174.65 73.22" stroke="#60a5fa" stroke-width="3" fill="none" stroke-linecap="round" stroke-linejoin="round"/>
</svg>