<svg xmlns="http://www.w3.org/2000/svg" viewBox="0 0 200 200" width="100%" height="100%">
  <path d="M 185.50 84.79 L 185.07 84.79 L 185.01 84.85 L 185.01 96.77 L 184.37 97.42 L 183.89 97.42 L 182.81 98.49 L 182.81 98.82 L 182.89 99.75 L 183.25 103.19 L 182.67 103.91 L 148.11 107.54 L 147.40 106.96 L 147.08 103.96 L 146.37 103.38 L 22.49 116.40 L 21.78 115.82 L 21.32 111.42 L 21.20 111.33 L 15.98 111.88 L 15.77 111.86 L 15.77 111.86 L 15.77 111.86 M 15.44 112.26 L 15.64 111.88 L 15.61 111.81 L 15.27 111.30 L 14.50 104.00 L 15.08 103.29 L 20.30 102.74 L 20.39 102.62 L 20.09 99.75 L 20.05 98.82 L 20.05 98.49 L 18.96 97.42 L 18.52 97.42 L 17.88 96.77 L 17.88 84.25 L 18.52 83.60 L 184.37 83.60 L 185.01 84.25 L 185.01 84.67 L 185.01 84.67 L 185.01 84.67" stroke="#60a5fa" stroke-width="3" fill="none" stroke-linecap="round" stroke-linejoin="round"/>
</svg>