<svg xmlns="http://www.w3.org/2000/svg" viewBox="0 0 200 200" width="100%" height="100%">
  <path d="M 185.50 68.40 L 185.15 68.40 L 185.10 68.44 L 185.10 129.39 L 184.93 129.57 L 109.30 129.57 L 109.12 129.39 L 109.12 123.50 L 109.04 123.41 L 108.86 123.41 L 108.77 123.50 L 108.77 133.46 L 108.60 133.64 L 61.46 133.64 L 61.28 133.46 L 61.28 123.50 L 61.20 123.41 L 61.02 123.41 L 60.93 123.50 L 60.93 129.39 L 60.76 129.57 L 37.79 129.57 L 37.79 129.57 L 37.79 129.57 M 37.69 129.96 L 37.69 129.61 L 37.65 129.57 L 14.68 129.57 L 14.50 129.39 L 14.50 83.17 L 14.68 82.99 L 106.13 82.99 L 106.31 83.17 L 106.31 88.32 L 106.40 88.41 L 106.66 88.41 L 106.84 88.24 L 106.84 72.05 L 107.01 71.88 L 109.39 71.88 L 109.48 71.79 L 109.48 66.54 L 109.65 66.36 L 184.93 66.36 L 185.10 66.54 L 185.10 68.30 L 185.10 68.30 L 185.10 68.30" stroke="#60a5fa" stroke-width="3" fill="none" stroke-linecap="round" stroke-linejoin="round"/>
</svg>