<svg xmlns="http://www.w3.org/2000/svg" viewBox="0 0 200 200" width="100%" height="100%">
  <path d="M 166.83 142.41 L 166.83 142.41 L 167.43 142.43 L 167.50 142.35 L 158.59 142.20 L 167.50 142.35 L 167.50 142.35 M 185.50 37.02 L 185.50 37.02 L 184.91 37.01 L 184.83 37.09 L 184.45 59.29 L 179.65 63.94 L 179.46 63.96 L 179.43 65.97 L 179.61 65.99 L 184.26 70.80 L 182.92 149.90 L 182.77 150.04 L 177.85 149.96 L 176.90 149.94 L 175.99 149.93 L 175.84 150.07 L 175.76 154.92 L 175.61 155.07 L 115.42 154.05 L 112.17 150.68 L 112.14 150.50 L 110.05 150.46 L 110.02 150.64 L 106.65 153.90 L 68.72 153.26 L 68.57 153.11 L 68.62 150.32 L 68.28 148.00 L 67.87 150.31 L 67.82 153.09 L 67.67 153.24 L 46.06 152.87 L 42.91 149.62 L 42.92 149.40 L 42.91 148.90 L 42.92 148.82 L 42.93 148.74 L 42.89 148.41 L 42.74 148.12 L 41.06 149.74 L 41.14 149.81 L 41.23 149.86 L 41.53 149.95 L 41.84 149.94 L 42.34 149.96 L 42.56 149.97 L 45.70 153.22 L 45.45 167.86 L 45.30 168.00 L 42.66 167.96 L 42.52 167.85 L 42.05 167.21 L 41.41 167.01 L 40.76 167.19 L 40.40 167.54 L 40.20 168.18 L 40.38 168.82 L 41.01 169.32 L 41.11 169.47 L 41.06 172.10 L 40.91 172.25 L 24.34 171.97 L 24.19 171.82 L 24.24 168.91 L 24.61 168.55 L 24.80 167.92 L 24.63 167.27 L 24.28 166.91 L 23.64 166.71 L 22.99 166.88 L 22.59 168.50 L 22.46 168.72 L 15.24 168.60 L 15.09 168.45 L 15.17 164.20 L 15.17 164.20 M 14.50 164.02 L 14.50 164.02 L 15.09 164.03 L 15.17 163.96 L 16.07 110.97 L 16.22 110.82 L 23.58 110.95 L 23.93 111.31 L 24.57 111.51 L 25.22 111.34 L 25.58 110.98 L 25.78 110.34 L 25.60 109.70 L 25.25 109.34 L 25.38 101.97 L 25.53 101.83 L 66.07 102.51 L 66.22 102.66 L 66.07 111.52 L 66.21 111.67 L 69.73 111.73 L 69.88 111.58 L 70.66 65.46 L 75.23 62.80 L 111.12 63.41 L 111.27 63.56 L 111.25 64.75 L 111.35 64.81 L 111.58 64.93 L 111.58 64.95 L 111.72 65.10 L 112.17 65.13 L 112.35 65.13 L 112.64 65.12 L 112.92 65.02 L 113.47 64.49 L 113.58 64.22 L 113.59 63.93 L 113.61 63.21 L 113.61 63.10 L 112.26 63.07 L 90.17 32.96 L 90.26 27.90 L 90.41 27.75 L 184.81 29.35 L 184.96 29.50 L 184.83 36.85 L 184.83 36.85" stroke="#60a5fa" stroke-width="3" fill="none" stroke-linecap="round" stroke-linejoin="round"/>
</svg>