<svg xmlns="http://www.w3.org/2000/svg" viewBox="0 0 200 200" width="100%" height="100%">
  <path d="M 168.76 65.08 L 168.76 65.08 L 168.22 65.40 L 168.20 65.51 L 181.55 87.74 L 181.64 88.06 L 181.64 91.49 L 181.01 92.12 L 180.51 92.12 L 180.51 92.59 L 184.87 92.59 L 185.50 93.21 L 185.50 103.71 L 184.87 104.34 L 141.05 104.34 L 140.55 104.09 L 140.43 103.96 L 139.75 103.70 L 139.08 103.96 L 139.01 104.02 L 138.75 104.70 L 139.01 105.38 L 139.63 105.70 L 140.17 106.32 L 140.17 149.82 L 139.55 150.45 L 60.89 150.45 L 60.27 149.82 L 60.27 106.32 L 60.81 105.70 L 61.43 105.38 L 61.68 104.70 L 61.43 104.02 L 61.36 103.96 L 60.68 103.70 L 60.01 103.96 L 59.89 104.09 L 59.39 104.34 L 15.57 104.34 L 15.22 104.23 L 15.22 104.23 M 14.50 104.51 L 14.50 104.51 L 15.02 104.17 L 15.04 104.06 L 14.94 103.71 L 14.94 93.21 L 15.57 92.59 L 19.93 92.59 L 19.93 92.12 L 19.43 92.12 L 18.80 91.49 L 18.80 88.06 L 18.89 87.74 L 37.66 56.50 L 40.34 54.98 L 59.38 54.98 L 60.01 55.61 L 60.01 55.92 L 60.17 56.08 L 61.21 56.08 L 61.36 55.92 L 61.36 50.18 L 61.99 49.55 L 138.45 49.55 L 139.08 50.18 L 139.08 55.92 L 139.23 56.08 L 140.27 56.08 L 140.43 55.92 L 140.43 55.61 L 141.06 54.98 L 160.10 54.98 L 162.78 56.50 L 168.07 65.30 L 168.07 65.30" stroke="#60a5fa" stroke-width="3" fill="none" stroke-linecap="round" stroke-linejoin="round"/>
</svg>