<svg xmlns="http://www.w3.org/2000/svg" viewBox="0 0 200 200" width="100%" height="100%">
  <path d="M 172.53 100.19 L 172.53 100.19 L 173.25 100.28 L 173.36 100.19 L 128.91 100.04 L 128.91 100.04 M 129.74 100.24 L 129.74 100.24 L 129.00 100.24 L 128.91 100.33 L 173.36 100.48 L 173.36 100.48 M 185.50 72.71 L 185.50 72.71 L 184.76 72.71 L 184.67 72.80 L 184.67 129.45 L 182.81 131.30 L 118.74 131.30 L 118.00 130.56 L 118.00 87.96 L 117.25 87.22 L 15.76 87.22 L 15.35 87.10 L 15.35 87.10 M 14.50 87.43 L 14.50 87.43 L 15.12 87.02 L 15.14 86.89 L 15.02 86.48 L 15.02 70.55 L 16.87 68.70 L 182.81 68.70 L 184.67 70.55 L 184.67 72.50 L 184.67 72.50" stroke="#60a5fa" stroke-width="3" fill="none" stroke-linecap="round" stroke-linejoin="round"/>
</svg>