<svg xmlns="http://www.w3.org/2000/svg" viewBox="0 0 200 200" width="100%" height="100%">
  <path d="M 185.50 81.19 L 185.01 81.16 L 184.95 81.22 L 183.90 99.57 L 183.38 100.03 L 178.26 99.74 L 177.75 100.20 L 176.53 121.40 L 176.02 121.86 L 124.11 118.89 L 123.65 118.37 L 123.96 113.01 L 123.50 112.49 L 123.14 112.47 L 123.01 112.59 L 122.68 118.27 L 122.17 118.73 L 15.43 112.62 L 14.97 112.10 L 15.04 110.86 L 15.04 110.86 L 15.04 110.86 M 14.50 110.70 L 14.99 110.72 L 15.05 110.67 L 16.37 87.61 L 16.80 87.15 L 163.99 78.14 L 164.02 78.14 L 184.57 79.32 L 185.03 79.83 L 184.96 81.02 L 184.96 81.02 L 184.96 81.02" stroke="#60a5fa" stroke-width="3" fill="none" stroke-linecap="round" stroke-linejoin="round"/>
</svg>