<svg xmlns="http://www.w3.org/2000/svg" viewBox="0 0 200 200" width="100%" height="100%">
  <path d="M 185.50 67.22 L 184.93 67.18 L 184.86 67.25 L 180.44 137.21 L 180.63 144.25 L 180.35 144.54 L 45.51 148.04 L 45.22 147.77 L 45.04 140.87 L 44.90 140.73 L 44.56 140.73 L 44.42 140.87 L 44.42 147.77 L 44.14 148.05 L 15.42 148.05 L 15.14 147.77 L 15.14 143.18 L 15.14 143.18 L 15.14 143.18 M 14.50 143.02 L 15.07 143.02 L 15.14 142.95 L 15.14 140.73 L 20.72 52.22 L 21.02 51.95 L 184.89 62.29 L 185.15 62.59 L 184.87 67.02 L 184.87 67.02 L 184.87 67.02" stroke="#60a5fa" stroke-width="3" fill="none" stroke-linecap="round" stroke-linejoin="round"/>
</svg>