<svg xmlns="http://www.w3.org/2000/svg" viewBox="0 0 200 200" width="100%" height="100%">
  <path d="M 185.50 59.06 L 185.15 59.06 L 185.11 59.10 L 185.11 126.52 L 184.93 126.70 L 94.14 126.70 L 93.97 126.52 L 93.97 121.13 L 93.88 121.04 L 93.52 121.04 L 93.35 121.21 L 93.35 137.66 L 93.17 137.84 L 90.81 137.84 L 90.72 137.93 L 90.72 143.41 L 90.54 143.59 L 15.07 143.59 L 14.89 143.41 L 14.89 140.97 L 14.89 140.97 L 14.89 140.97 M 14.50 140.87 L 14.85 140.87 L 14.89 140.83 L 14.89 56.59 L 15.07 56.41 L 90.72 56.41 L 90.89 56.59 L 90.89 86.36 L 91.07 86.53 L 91.16 86.53 L 91.24 86.44 L 91.24 76.52 L 91.42 76.35 L 138.35 76.35 L 138.53 76.52 L 138.53 86.44 L 138.61 86.53 L 138.70 86.53 L 138.88 86.36 L 138.88 56.59 L 139.05 56.41 L 184.93 56.41 L 185.11 56.59 L 185.11 58.96 L 185.11 58.96 L 185.11 58.96" stroke="#60a5fa" stroke-width="3" fill="none" stroke-linecap="round" stroke-linejoin="round"/>
</svg>