<svg xmlns="http://www.w3.org/2000/svg" viewBox="0 0 200 200" width="100%" height="100%">
  <path d="M 185.50 99.93 L 184.94 99.93 L 184.87 100.00 L 184.87 109.18 L 184.32 109.73 L 120.04 109.73 L 119.48 109.18 L 119.48 96.38 L 118.92 95.82 L 100.56 95.82 L 100.00 96.38 L 100.00 109.18 L 99.44 109.73 L 15.68 109.73 L 15.13 109.18 L 15.13 100.11 L 15.13 100.11 L 15.13 100.11 M 14.50 99.96 L 15.06 99.96 L 15.13 99.89 L 15.13 96.35 L 15.66 95.80 L 32.51 95.04 L 49.37 94.33 L 66.24 93.67 L 83.10 93.05 L 99.96 92.47 L 116.83 91.94 L 133.70 91.46 L 150.57 91.02 L 167.44 90.62 L 184.31 90.27 L 184.87 90.82 L 184.87 99.78 L 184.87 99.78 L 184.87 99.78" stroke="#60a5fa" stroke-width="3" fill="none" stroke-linecap="round" stroke-linejoin="round"/>
</svg>