<svg xmlns="http://www.w3.org/2000/svg" viewBox="0 0 200 200" width="100%" height="100%">
  <path d="M 69.34 131.60 L 69.34 131.60 L 69.62 131.61 L 69.65 131.58 L 67.56 131.58 L 69.65 131.58 L 69.65 131.58 M 69.34 107.87 L 69.34 107.87 L 69.62 107.88 L 69.65 107.84 L 67.56 107.84 L 69.65 107.84 L 69.65 107.84 M 69.34 84.13 L 69.34 84.13 L 69.62 84.14 L 69.65 84.10 L 67.56 84.10 L 69.65 84.10 L 69.65 84.10 M 69.34 60.39 L 69.34 60.39 L 69.62 60.40 L 69.65 60.37 L 67.56 60.37 L 69.65 60.37 L 69.65 60.37 M 85.40 71.91 L 85.40 71.91 L 85.68 71.92 L 85.71 71.89 L 83.62 71.89 L 85.71 71.89 L 85.71 71.89 M 113.32 71.91 L 113.32 71.91 L 113.60 71.92 L 113.64 71.89 L 111.54 71.89 L 113.64 71.89 L 113.64 71.89 M 129.38 60.39 L 129.38 60.39 L 129.66 60.40 L 129.70 60.37 L 127.60 60.37 L 129.70 60.37 L 129.70 60.37 M 158.56 67.91 L 158.56 67.91 L 158.84 67.94 L 158.88 67.91 L 142.12 67.85 L 142.12 67.85 M 142.44 67.92 L 142.44 67.92 L 142.16 67.93 L 142.12 67.96 L 158.88 68.02 L 158.88 68.02 M 129.38 84.13 L 129.38 84.13 L 129.66 84.14 L 129.70 84.10 L 127.60 84.10 L 129.70 84.10 L 129.70 84.10 M 129.38 107.87 L 129.38 107.87 L 129.66 107.88 L 129.70 107.84 L 127.60 107.84 L 129.70 107.84 L 129.70 107.84 M 129.38 131.60 L 129.38 131.60 L 129.66 131.61 L 129.70 131.58 L 127.60 131.58 L 129.70 131.58 L 129.70 131.58 M 113.32 111.01 L 113.32 111.01 L 113.60 111.02 L 113.64 110.98 L 111.54 110.98 L 113.64 110.98 L 113.64 110.98 M 85.40 111.01 L 85.40 111.01 L 85.68 111.02 L 85.71 110.98 L 83.62 110.98 L 85.71 110.98 L 85.71 110.98 M 182.37 51.65 L 182.37 51.65 L 182.09 51.65 L 182.06 51.68 L 182.06 88.71 L 182.48 89.13 L 185.09 89.13 L 185.50 89.61 L 121.09 150.80 L 121.05 150.80 L 79.70 150.80 L 79.66 150.80 L 34.58 129.10 L 34.58 129.10 M 34.30 129.26 L 34.30 129.26 L 34.50 129.07 L 34.50 129.02 L 14.50 79.29 L 14.50 49.61 L 14.92 49.20 L 181.64 49.20 L 182.06 49.61 L 182.06 51.57 L 182.06 51.57" stroke="#60a5fa" stroke-width="3" fill="none" stroke-linecap="round" stroke-linejoin="round"/>
</svg>