<svg xmlns="http://www.w3.org/2000/svg" viewBox="0 0 200 200" width="100%" height="100%">
  <path d="M 185.50 99.93 L 185.50 99.93 L 184.94 99.93 L 184.87 100.00 L 184.87 103.65 L 184.34 104.20 L 167.49 104.96 L 150.63 105.67 L 133.76 106.33 L 116.90 106.95 L 100.04 107.53 L 83.17 108.06 L 66.30 108.54 L 49.43 108.98 L 32.56 109.38 L 15.69 109.73 L 15.13 109.18 L 15.13 100.11 L 15.13 100.11 M 14.50 99.96 L 14.50 99.96 L 15.06 99.96 L 15.13 99.89 L 15.13 90.82 L 15.68 90.27 L 79.96 90.27 L 80.52 90.82 L 80.52 103.62 L 81.08 104.18 L 99.44 104.18 L 100.00 103.62 L 100.00 90.82 L 100.56 90.27 L 184.32 90.27 L 184.87 90.82 L 184.87 99.78 L 184.87 99.78" stroke="#60a5fa" stroke-width="3" fill="none" stroke-linecap="round" stroke-linejoin="round"/>
</svg>