<svg xmlns="http://www.w3.org/2000/svg" viewBox="0 0 200 200" width="100%" height="100%">
  <path d="M 53.96 180.95 L 53.96 180.95 L 54.10 179.95 L 53.96 179.80 L 53.96 182.11 L 53.96 179.80 L 53.96 179.80 M 38.42 139.96 L 38.42 139.96 L 38.53 138.87 L 38.39 138.72 L 38.39 141.75 L 38.39 138.72 L 38.39 138.72 M 37.98 149.36 L 37.98 149.36 L 38.11 148.28 L 37.98 148.12 L 36.87 149.23 L 36.87 172.37 L 39.08 172.37 L 39.08 149.23 L 37.98 148.12 L 37.98 148.12 M 55.73 155.43 L 55.73 155.43 L 55.75 154.33 L 55.61 154.19 L 55.61 170.72 L 55.61 154.19 L 55.61 154.19 M 90.73 155.43 L 90.73 155.43 L 90.75 154.33 L 90.61 154.19 L 90.61 170.72 L 90.61 154.19 L 90.61 154.19 M 125.60 180.95 L 125.60 180.95 L 125.74 179.95 L 125.60 179.80 L 125.60 182.11 L 125.60 179.80 L 125.60 179.80 M 140.93 139.96 L 140.93 139.96 L 141.04 138.87 L 140.90 138.72 L 140.90 141.75 L 140.90 138.72 L 140.90 138.72 M 143.24 149.36 L 143.24 149.36 L 143.38 148.28 L 143.24 148.12 L 142.14 149.23 L 142.14 172.37 L 144.34 172.37 L 144.34 149.23 L 143.24 148.12 L 143.24 148.12 M 125.72 155.43 L 125.72 155.43 L 125.74 154.33 L 125.60 154.19 L 125.60 170.72 L 125.60 154.19 L 125.60 154.19 M 165.61 130.86 L 164.52 131.00 L 164.37 130.86 L 164.37 62.80 L 167.12 62.80 L 167.12 68.92 L 167.12 68.92 M 165.88 69.22 L 166.98 69.22 L 167.12 69.36 L 167.12 137.20 L 164.37 137.20 L 164.37 131.30 L 164.37 131.30 M 125.60 19.05 L 125.60 19.05 L 125.74 18.05 L 125.60 17.89 L 125.60 20.20 L 125.60 17.89 L 125.60 17.89 M 140.93 59.50 L 140.93 59.50 L 141.04 58.40 L 140.90 58.25 L 140.90 61.28 L 140.90 58.25 L 140.90 58.25 M 143.24 50.64 L 143.24 50.64 L 143.10 51.72 L 143.24 51.88 L 144.34 50.77 L 144.34 27.63 L 142.14 27.63 L 142.14 50.77 L 143.24 51.88 L 143.24 51.88 M 125.72 30.52 L 125.72 30.52 L 125.74 29.42 L 125.60 29.28 L 125.60 45.81 L 125.60 29.28 L 125.60 29.28 M 90.73 30.52 L 90.73 30.52 L 90.75 29.42 L 90.61 29.28 L 90.61 45.81 L 90.61 29.28 L 90.61 29.28 M 38.42 59.50 L 38.42 59.50 L 38.53 58.40 L 38.39 58.25 L 38.39 61.28 L 38.39 58.25 L 38.39 58.25 M 53.96 19.05 L 53.96 19.05 L 54.10 18.05 L 53.96 17.89 L 53.96 20.20 L 53.96 17.89 L 53.96 17.89 M 55.73 30.52 L 55.73 30.52 L 55.75 29.42 L 55.61 29.28 L 55.61 45.81 L 55.61 29.28 L 55.61 29.28 M 37.98 50.64 L 37.98 50.64 L 37.84 51.72 L 37.98 51.88 L 39.08 50.77 L 39.08 27.63 L 36.87 27.63 L 36.87 50.77 L 37.98 51.88 L 37.98 51.88 M 149.99 31.46 L 149.99 31.46 L 148.89 31.46 L 148.75 31.60 L 148.75 57.01 L 149.03 57.29 L 167.12 57.29 L 168.77 58.94 L 168.77 141.06 L 167.12 142.71 L 149.03 142.71 L 148.75 142.99 L 148.75 183.85 L 147.10 185.50 L 34.12 185.50 L 32.47 183.85 L 32.47 168.62 L 32.47 168.62 M 31.23 168.32 L 31.23 168.32 L 32.33 168.32 L 32.47 168.18 L 32.47 136.92 L 34.12 135.27 L 44.04 135.27 L 45.69 136.92 L 45.69 149.50 L 47.35 151.15 L 132.22 151.15 L 133.87 149.50 L 133.87 136.92 L 135.52 135.27 L 136.08 135.27 L 137.73 133.62 L 137.73 66.38 L 136.08 64.73 L 135.52 64.73 L 133.87 63.08 L 133.87 50.50 L 132.22 48.85 L 47.35 48.85 L 45.69 50.50 L 45.69 63.08 L 44.04 64.73 L 34.12 64.73 L 32.47 63.08 L 32.47 16.15 L 34.12 14.50 L 147.10 14.50 L 148.75 16.15 L 148.75 31.16 L 148.75 31.16" stroke="#60a5fa" stroke-width="3" fill="none" stroke-linecap="round" stroke-linejoin="round"/>
</svg>