<svg xmlns="http://www.w3.org/2000/svg" viewBox="0 0 200 200" width="100%" height="100%">
  <path d="M 29.41 163.24 L 29.61 160.97 L 29.33 160.65 L 29.33 167.50 L 29.33 160.65 L 29.33 160.65 L 29.33 160.65 M 170.96 129.66 L 168.71 129.38 L 168.39 129.66 L 171.24 132.51 L 176.94 132.51 L 176.94 126.81 L 171.24 126.81 L 168.39 129.66 L 168.39 129.66 L 168.39 129.66 M 170.96 70.34 L 168.71 70.06 L 168.39 70.34 L 171.24 73.19 L 176.94 73.19 L 176.94 67.49 L 171.24 67.49 L 168.39 70.34 L 168.39 70.34 L 168.39 70.34 M 29.41 35.09 L 29.61 32.81 L 29.33 32.50 L 29.33 39.35 L 29.33 32.50 L 29.33 32.50 L 29.33 32.50 M 181.82 56.88 L 181.06 60.22 L 185.50 65.78 L 185.50 134.22 L 179.80 139.93 L 40.74 139.93 L 40.74 168.45 L 35.03 174.15 L 23.63 174.15 L 17.92 168.45 L 17.92 159.78 L 17.92 159.78 L 17.92 159.78 M 14.50 158.86 L 17.92 158.86 L 17.92 31.55 L 23.63 25.85 L 35.03 25.85 L 40.74 31.55 L 40.74 60.07 L 179.80 60.07 L 180.16 60.08 L 180.16 60.08 L 180.16 60.08" stroke="#60a5fa" stroke-width="3" fill="none" stroke-linecap="round" stroke-linejoin="round"/>
</svg>