<svg xmlns="http://www.w3.org/2000/svg" viewBox="0 0 200 200" width="100%" height="100%">
  <path d="M 63.46 176.54 L 63.63 174.83 L 63.42 174.60 L 63.42 179.30 L 63.42 174.60 L 63.42 174.60 L 63.42 174.60 M 138.50 146.17 L 138.72 144.49 L 138.50 144.25 L 138.50 148.09 L 138.50 144.25 L 138.50 144.25 L 138.50 144.25 M 96.76 125.44 L 96.79 123.73 L 96.58 123.51 L 96.58 144.89 L 96.58 123.51 L 96.58 123.51 L 96.58 123.51 M 96.76 57.04 L 96.79 55.33 L 96.58 55.11 L 96.58 76.49 L 96.58 55.11 L 96.58 55.11 L 96.58 55.11 M 138.50 53.83 L 138.72 52.15 L 138.50 51.91 L 138.50 55.75 L 138.50 51.91 L 138.50 51.91 L 138.50 51.91 M 63.46 22.64 L 63.63 20.93 L 63.42 20.70 L 63.42 25.40 L 63.42 20.70 L 63.42 20.70 L 63.42 20.70 M 144.26 44.16 L 143.71 46.66 L 147.05 50.84 L 147.05 149.16 L 142.78 153.44 L 71.33 153.44 L 71.33 181.22 L 67.05 185.50 L 59.79 185.50 L 55.51 181.22 L 55.51 168.74 L 55.51 168.74 L 55.51 168.74 M 52.95 168.06 L 55.51 168.06 L 55.51 18.78 L 59.79 14.50 L 67.05 14.50 L 71.33 18.78 L 71.33 46.56 L 142.78 46.56 L 143.03 46.57 L 143.03 46.57 L 143.03 46.57" stroke="#60a5fa" stroke-width="3" fill="none" stroke-linecap="round" stroke-linejoin="round"/>
</svg>