<svg xmlns="http://www.w3.org/2000/svg" viewBox="0 0 200 200" width="100%" height="100%">
  <path d="M 27.20 167.84 L 27.20 167.84 L 27.00 170.21 L 27.30 170.54 L 27.30 162.80 L 27.30 170.54 L 27.30 170.54 M 160.80 171.43 L 160.80 171.43 L 158.45 171.13 L 158.12 171.43 L 161.99 175.30 L 170.32 175.30 L 170.32 167.56 L 161.99 167.56 L 158.12 171.43 L 158.12 171.43 M 107.48 147.91 L 107.48 147.91 L 107.44 150.29 L 107.74 150.60 L 107.74 114.88 L 107.74 150.60 L 107.74 150.60 M 107.48 82.44 L 107.48 82.44 L 107.44 84.82 L 107.74 85.12 L 107.74 49.40 L 107.74 85.12 L 107.74 85.12 M 27.20 101.17 L 27.20 101.17 L 27.00 103.55 L 27.30 103.87 L 27.30 96.13 L 27.30 103.87 L 27.30 103.87 M 27.20 34.51 L 27.20 34.51 L 27.00 36.88 L 27.30 37.20 L 27.30 29.46 L 27.30 37.20 L 27.30 37.20 M 160.80 28.57 L 160.80 28.57 L 158.45 28.28 L 158.12 28.57 L 161.99 32.44 L 170.32 32.44 L 170.32 24.70 L 161.99 24.70 L 158.12 28.57 L 158.12 28.57 M 185.50 33.33 L 185.50 33.33 L 181.93 33.33 L 181.93 177.38 L 175.98 183.33 L 24.02 183.33 L 18.07 177.38 L 18.07 167.14 L 18.07 167.14 M 14.50 166.19 L 14.50 166.19 L 18.07 166.19 L 18.07 22.62 L 24.02 16.67 L 175.98 16.67 L 181.93 22.62 L 181.93 32.38 L 181.93 32.38" stroke="#60a5fa" stroke-width="3" fill="none" stroke-linecap="round" stroke-linejoin="round"/>
</svg>