<svg xmlns="http://www.w3.org/2000/svg" viewBox="0 0 200 200" width="100%" height="100%">
  <path d="M 25.04 137.26 L 25.04 137.26 L 23.37 137.09 L 23.13 137.30 L 27.77 137.30 L 23.13 137.30 L 23.13 137.30 M 58.94 104.46 L 58.94 104.46 L 57.25 104.42 L 57.04 104.63 L 78.10 104.63 L 57.04 104.63 L 57.04 104.63 M 55.78 63.33 L 55.78 63.33 L 54.12 63.12 L 53.88 63.33 L 57.67 63.33 L 53.88 63.33 L 53.88 63.33 M 146.75 63.33 L 146.75 63.33 L 145.09 63.12 L 144.86 63.33 L 148.65 63.33 L 144.86 63.33 L 144.86 63.33 M 126.33 104.46 L 126.33 104.46 L 124.64 104.42 L 124.43 104.63 L 145.49 104.63 L 124.43 104.63 L 124.43 104.63 M 176.67 137.26 L 176.67 137.26 L 174.99 137.09 L 174.76 137.30 L 179.39 137.30 L 174.76 137.30 L 174.76 137.30 M 156.44 63.92 L 156.44 63.92 L 153.91 63.92 L 153.91 129.51 L 181.29 129.51 L 185.50 133.72 L 185.50 140.88 L 181.29 145.10 L 21.24 145.10 L 17.03 140.88 L 17.03 136.41 L 17.03 136.41 M 14.50 135.74 L 14.50 135.74 L 17.03 135.74 L 17.03 133.72 L 21.24 129.51 L 48.62 129.51 L 48.62 59.12 L 52.83 54.90 L 149.70 54.90 L 153.91 59.12 L 153.91 63.25 L 153.91 63.25" stroke="#60a5fa" stroke-width="3" fill="none" stroke-linecap="round" stroke-linejoin="round"/>
</svg>