<svg xmlns="http://www.w3.org/2000/svg" viewBox="0 0 200 200" width="100%" height="100%">
  <path d="M 20.09 135.81 L 20.09 135.81 L 20.53 135.87 L 20.60 135.81 L 19.58 135.81 L 20.60 135.81 L 20.60 135.81 M 22.70 107.33 L 22.70 107.33 L 23.18 107.38 L 23.25 107.32 L 21.79 107.32 L 23.25 107.32 L 23.25 107.32 M 22.70 92.87 L 22.70 92.87 L 23.18 92.92 L 23.25 92.86 L 21.79 92.86 L 23.25 92.86 L 23.25 92.86 M 20.09 64.19 L 20.09 64.19 L 20.53 64.25 L 20.60 64.19 L 19.58 64.19 L 20.60 64.19 L 20.60 64.19 M 54.78 92.87 L 54.78 92.87 L 55.26 92.92 L 55.33 92.86 L 53.87 92.86 L 55.33 92.86 L 55.33 92.86 M 54.78 107.33 L 54.78 107.33 L 55.26 107.38 L 55.33 107.32 L 53.87 107.32 L 55.33 107.32 L 55.33 107.32 M 70.45 112.24 L 70.45 112.24 L 70.93 112.30 L 71.00 112.24 L 69.79 112.24 L 71.00 112.24 L 71.00 112.24 M 58.97 135.81 L 58.97 135.81 L 59.41 135.87 L 59.48 135.81 L 58.46 135.81 L 59.48 135.81 L 59.48 135.81 M 77.93 131.28 L 77.93 131.28 L 78.22 131.34 L 78.29 131.28 L 77.56 131.28 L 78.29 131.28 L 78.29 131.28 M 85.70 131.28 L 85.70 131.28 L 86.00 131.34 L 86.07 131.28 L 85.34 131.28 L 86.07 131.28 L 86.07 131.28 M 85.58 118.56 L 85.58 118.56 L 86.06 118.62 L 86.13 118.55 L 84.91 118.55 L 86.13 118.55 L 86.13 118.55 M 102.53 117.84 L 102.53 117.84 L 103.01 117.89 L 103.08 117.83 L 101.62 117.83 L 103.08 117.83 L 103.08 117.83 M 97.85 135.81 L 97.85 135.81 L 98.30 135.87 L 98.36 135.81 L 97.34 135.81 L 98.36 135.81 L 98.36 135.81 M 136.74 135.81 L 136.74 135.81 L 137.18 135.87 L 137.25 135.81 L 136.23 135.81 L 137.25 135.81 L 137.25 135.81 M 144.21 115.65 L 144.21 115.65 L 144.69 115.70 L 144.76 115.64 L 143.30 115.64 L 144.76 115.64 L 144.76 115.64 M 149.62 116.70 L 149.62 116.70 L 150.10 116.76 L 150.16 116.70 L 149.07 116.70 L 150.16 116.70 L 150.16 116.70 M 175.62 135.81 L 175.62 135.81 L 176.06 135.87 L 176.13 135.81 L 175.11 135.81 L 176.13 135.81 L 176.13 135.81 M 182.91 116.70 L 182.91 116.70 L 183.39 116.76 L 183.46 116.70 L 182.36 116.70 L 183.46 116.70 L 183.46 116.70 M 183.88 108.78 L 183.88 108.78 L 184.17 108.84 L 184.25 108.78 L 183.52 108.78 L 184.25 108.78 L 184.25 108.78 M 183.88 101.01 L 183.88 101.01 L 184.17 101.07 L 184.25 101.01 L 183.52 101.01 L 184.25 101.01 L 184.25 101.01 M 144.21 78.23 L 144.21 78.23 L 144.69 78.27 L 144.76 78.21 L 143.30 78.21 L 144.76 78.21 L 144.76 78.21 M 144.03 64.19 L 144.03 64.19 L 144.47 64.25 L 144.54 64.19 L 143.52 64.19 L 144.54 64.19 L 144.54 64.19 M 102.53 76.04 L 102.53 76.04 L 103.01 76.09 L 103.08 76.03 L 101.62 76.03 L 103.08 76.03 L 103.08 76.03 M 97.85 64.19 L 97.85 64.19 L 98.30 64.25 L 98.36 64.19 L 97.34 64.19 L 98.36 64.19 L 98.36 64.19 M 71.12 64.19 L 71.12 64.19 L 71.56 64.25 L 71.63 64.19 L 70.61 64.19 L 71.63 64.19 L 71.63 64.19 M 185.50 99.39 L 185.50 99.39 L 184.98 99.90 L 185.34 100.76 L 185.34 136.05 L 184.13 137.27 L 16.44 137.27 L 15.23 136.05 L 15.23 134.17 L 15.23 134.17 M 14.50 133.98 L 14.50 133.98 L 15.23 133.98 L 15.23 63.95 L 16.44 62.73 L 145.24 62.73 L 146.46 63.95 L 146.46 98.33 L 147.67 99.55 L 184.13 99.55 L 184.84 99.78 L 184.84 99.78" stroke="#60a5fa" stroke-width="3" fill="none" stroke-linecap="round" stroke-linejoin="round"/>
</svg>