<svg xmlns="http://www.w3.org/2000/svg" viewBox="0 0 200 200" width="100%" height="100%">
  <path d="M 25.35 143.11 L 23.74 142.89 L 23.49 143.11 L 27.21 143.11 L 23.49 143.11 L 23.49 143.11 L 23.49 143.11 M 100.00 143.11 L 98.39 142.89 L 98.14 143.11 L 101.86 143.11 L 98.14 143.11 L 98.14 143.11 L 98.14 143.11 M 174.65 143.11 L 173.04 142.89 L 172.79 143.11 L 176.51 143.11 L 172.79 143.11 L 172.79 143.11 L 172.79 143.11 M 175.53 89.89 L 175.75 88.15 L 175.53 87.90 L 172.43 87.90 L 171.99 88.34 L 171.99 109.43 L 172.43 109.87 L 178.63 109.87 L 179.08 109.43 L 179.08 88.34 L 178.63 87.90 L 175.53 87.90 L 175.53 87.90 L 175.53 87.90 M 161.80 89.89 L 162.02 88.15 L 161.80 87.90 L 158.70 87.90 L 158.26 88.34 L 158.26 109.43 L 158.70 109.87 L 164.90 109.87 L 165.34 109.43 L 165.34 88.34 L 164.90 87.90 L 161.80 87.90 L 161.80 87.90 L 161.80 87.90 M 148.07 89.89 L 148.29 88.15 L 148.07 87.90 L 144.97 87.90 L 144.52 88.34 L 144.52 109.43 L 144.97 109.87 L 151.17 109.87 L 151.61 109.43 L 151.61 88.34 L 151.17 87.90 L 148.07 87.90 L 148.07 87.90 L 148.07 87.90 M 134.33 89.89 L 134.55 88.15 L 134.33 87.90 L 131.23 87.90 L 130.79 88.34 L 130.79 109.43 L 131.23 109.87 L 137.43 109.87 L 137.88 109.43 L 137.88 88.34 L 137.43 87.90 L 134.33 87.90 L 134.33 87.90 L 134.33 87.90 M 120.60 89.89 L 120.82 88.15 L 120.60 87.90 L 117.50 87.90 L 117.06 88.34 L 117.06 109.43 L 117.50 109.87 L 123.70 109.87 L 124.14 109.43 L 124.14 88.34 L 123.70 87.90 L 120.60 87.90 L 120.60 87.90 L 120.60 87.90 M 106.87 89.89 L 107.09 88.15 L 106.87 87.90 L 103.77 87.90 L 103.32 88.34 L 103.32 109.43 L 103.77 109.87 L 109.97 109.87 L 110.41 109.43 L 110.41 88.34 L 109.97 87.90 L 106.87 87.90 L 106.87 87.90 L 106.87 87.90 M 93.13 89.89 L 93.35 88.15 L 93.13 87.90 L 90.03 87.90 L 89.59 88.34 L 89.59 109.43 L 90.03 109.87 L 96.23 109.87 L 96.68 109.43 L 96.68 88.34 L 96.23 87.90 L 93.13 87.90 L 93.13 87.90 L 93.13 87.90 M 79.40 89.89 L 79.62 88.15 L 79.40 87.90 L 76.30 87.90 L 75.86 88.34 L 75.86 109.43 L 76.30 109.87 L 82.50 109.87 L 82.94 109.43 L 82.94 88.34 L 82.50 87.90 L 79.40 87.90 L 79.40 87.90 L 79.40 87.90 M 65.67 89.89 L 65.89 88.15 L 65.67 87.90 L 62.57 87.90 L 62.12 88.34 L 62.12 109.43 L 62.57 109.87 L 68.77 109.87 L 69.21 109.43 L 69.21 88.34 L 68.77 87.90 L 65.67 87.90 L 65.67 87.90 L 65.67 87.90 M 51.93 89.89 L 52.15 88.15 L 51.93 87.90 L 48.83 87.90 L 48.39 88.34 L 48.39 109.43 L 48.83 109.87 L 55.03 109.87 L 55.48 109.43 L 55.48 88.34 L 55.03 87.90 L 51.93 87.90 L 51.93 87.90 L 51.93 87.90 M 38.20 89.89 L 38.42 88.15 L 38.20 87.90 L 35.10 87.90 L 34.66 88.34 L 34.66 109.43 L 35.10 109.87 L 41.30 109.87 L 41.74 109.43 L 41.74 88.34 L 41.30 87.90 L 38.20 87.90 L 38.20 87.90 L 38.20 87.90 M 24.47 89.89 L 24.69 88.15 L 24.47 87.90 L 21.37 87.90 L 20.92 88.34 L 20.92 109.43 L 21.37 109.87 L 27.57 109.87 L 28.01 109.43 L 28.01 88.34 L 27.57 87.90 L 24.47 87.90 L 24.47 87.90 L 24.47 87.90 M 24.47 72.61 L 24.25 74.36 L 24.47 74.61 L 27.57 74.61 L 28.01 74.16 L 28.01 53.08 L 27.57 52.63 L 21.37 52.63 L 20.92 53.08 L 20.92 74.16 L 21.37 74.61 L 24.47 74.61 L 24.47 74.61 L 24.47 74.61 M 38.20 72.61 L 37.98 74.36 L 38.20 74.61 L 41.30 74.61 L 41.74 74.16 L 41.74 53.08 L 41.30 52.63 L 35.10 52.63 L 34.66 53.08 L 34.66 74.16 L 35.10 74.61 L 38.20 74.61 L 38.20 74.61 L 38.20 74.61 M 51.93 72.61 L 51.71 74.36 L 51.93 74.61 L 55.03 74.61 L 55.48 74.16 L 55.48 53.08 L 55.03 52.63 L 48.83 52.63 L 48.39 53.08 L 48.39 74.16 L 48.83 74.61 L 51.93 74.61 L 51.93 74.61 L 51.93 74.61 M 65.67 72.61 L 65.45 74.36 L 65.67 74.61 L 68.77 74.61 L 69.21 74.16 L 69.21 53.08 L 68.77 52.63 L 62.57 52.63 L 62.12 53.08 L 62.12 74.16 L 62.57 74.61 L 65.67 74.61 L 65.67 74.61 L 65.67 74.61 M 79.40 72.61 L 79.18 74.36 L 79.40 74.61 L 82.50 74.61 L 82.94 74.16 L 82.94 53.08 L 82.50 52.63 L 76.30 52.63 L 75.86 53.08 L 75.86 74.16 L 76.30 74.61 L 79.40 74.61 L 79.40 74.61 L 79.40 74.61 M 93.13 72.61 L 92.91 74.36 L 93.13 74.61 L 96.23 74.61 L 96.68 74.16 L 96.68 53.08 L 96.23 52.63 L 90.03 52.63 L 89.59 53.08 L 89.59 74.16 L 90.03 74.61 L 93.13 74.61 L 93.13 74.61 L 93.13 74.61 M 106.87 72.61 L 106.65 74.36 L 106.87 74.61 L 109.97 74.61 L 110.41 74.16 L 110.41 53.08 L 109.97 52.63 L 103.77 52.63 L 103.32 53.08 L 103.32 74.16 L 103.77 74.61 L 106.87 74.61 L 106.87 74.61 L 106.87 74.61 M 120.60 72.61 L 120.38 74.36 L 120.60 74.61 L 123.70 74.61 L 124.14 74.16 L 124.14 53.08 L 123.70 52.63 L 117.50 52.63 L 117.06 53.08 L 117.06 74.16 L 117.50 74.61 L 120.60 74.61 L 120.60 74.61 L 120.60 74.61 M 134.33 72.61 L 134.11 74.36 L 134.33 74.61 L 137.43 74.61 L 137.88 74.16 L 137.88 53.08 L 137.43 52.63 L 131.23 52.63 L 130.79 53.08 L 130.79 74.16 L 131.23 74.61 L 134.33 74.61 L 134.33 74.61 L 134.33 74.61 M 148.07 72.61 L 147.85 74.36 L 148.07 74.61 L 151.17 74.61 L 151.61 74.16 L 151.61 53.08 L 151.17 52.63 L 144.97 52.63 L 144.52 53.08 L 144.52 74.16 L 144.97 74.61 L 148.07 74.61 L 148.07 74.61 L 148.07 74.61 M 161.80 72.61 L 161.58 74.36 L 161.80 74.61 L 164.90 74.61 L 165.34 74.16 L 165.34 53.08 L 164.90 52.63 L 158.70 52.63 L 158.26 53.08 L 158.26 74.16 L 158.70 74.61 L 161.80 74.61 L 161.80 74.61 L 161.80 74.61 M 175.53 72.61 L 175.31 74.36 L 175.53 74.61 L 178.63 74.61 L 179.08 74.16 L 179.08 53.08 L 178.63 52.63 L 172.43 52.63 L 171.99 53.08 L 171.99 74.16 L 172.43 74.61 L 175.53 74.61 L 175.53 74.61 L 175.53 74.61 M 185.50 58.20 L 183.73 58.20 L 183.51 58.42 L 183.51 150.20 L 181.73 151.97 L 18.27 151.97 L 16.49 150.20 L 16.49 141.93 L 16.49 141.93 L 16.49 141.93 M 14.50 141.45 L 16.27 141.45 L 16.49 141.22 L 16.49 49.80 L 18.27 48.03 L 181.73 48.03 L 183.51 49.80 L 183.51 57.71 L 183.51 57.71 L 183.51 57.71" stroke="#60a5fa" stroke-width="3" fill="none" stroke-linecap="round" stroke-linejoin="round"/>
</svg>